<mxfile host="app.diagrams.net" agent="Mozilla/5.0 (Windows NT 10.0; Win64; x64) AppleWebKit/537.36 (KHTML, like Gecko) Chrome/132.0.0.0 Safari/537.36" version="25.0.3">
  <diagram name="Page-1" id="gtiziDkik_fSBr7Up_oh">
    <mxGraphModel dx="1195" dy="648" grid="1" gridSize="10" guides="1" tooltips="1" connect="1" arrows="1" fold="1" page="1" pageScale="1" pageWidth="850" pageHeight="1100" math="0" shadow="0">
      <root>
        <mxCell id="0" />
        <mxCell id="1" parent="0" />
        <mxCell id="ia7eiPpj9HIzrvs8EQUf-2" value="" style="image;aspect=fixed;perimeter=ellipsePerimeter;html=1;align=center;shadow=0;dashed=0;spacingTop=3;image=img/lib/active_directory/laptop_client.svg;" vertex="1" parent="1">
          <mxGeometry x="100" y="232.5" width="67.5" height="75" as="geometry" />
        </mxCell>
        <mxCell id="ia7eiPpj9HIzrvs8EQUf-3" value="&lt;font style=&quot;font-size: 36px;&quot;&gt;&lt;b&gt;Arquitectura Cliente Servidor&lt;/b&gt;&lt;/font&gt;" style="text;html=1;align=center;verticalAlign=middle;whiteSpace=wrap;rounded=0;" vertex="1" parent="1">
          <mxGeometry x="195.5" y="30" width="504.84" height="120" as="geometry" />
        </mxCell>
        <mxCell id="ia7eiPpj9HIzrvs8EQUf-5" value="&lt;font style=&quot;font-size: 18px;&quot;&gt;HTTP&lt;/font&gt;" style="text;html=1;align=center;verticalAlign=middle;whiteSpace=wrap;rounded=0;rotation=0;" vertex="1" parent="1">
          <mxGeometry x="378.75" y="220" width="102.5" height="50" as="geometry" />
        </mxCell>
        <mxCell id="ia7eiPpj9HIzrvs8EQUf-7" value="&lt;font style=&quot;font-size: 14px;&quot;&gt;Cliente&lt;/font&gt;" style="text;html=1;align=center;verticalAlign=middle;whiteSpace=wrap;rounded=0;" vertex="1" parent="1">
          <mxGeometry x="91.25" y="300" width="60" height="30" as="geometry" />
        </mxCell>
        <mxCell id="ia7eiPpj9HIzrvs8EQUf-8" value="" style="whiteSpace=wrap;html=1;aspect=fixed;" vertex="1" parent="1">
          <mxGeometry x="40" y="590" width="222.5" height="222.5" as="geometry" />
        </mxCell>
        <mxCell id="ia7eiPpj9HIzrvs8EQUf-9" value="Front" style="rounded=0;whiteSpace=wrap;html=1;" vertex="1" parent="1">
          <mxGeometry x="91.25" y="682.5" width="120" height="60" as="geometry" />
        </mxCell>
        <mxCell id="ia7eiPpj9HIzrvs8EQUf-14" value="" style="whiteSpace=wrap;html=1;aspect=fixed;" vertex="1" parent="1">
          <mxGeometry x="310" y="590" width="222.5" height="222.5" as="geometry" />
        </mxCell>
        <mxCell id="ia7eiPpj9HIzrvs8EQUf-15" value="Back" style="rounded=0;whiteSpace=wrap;html=1;" vertex="1" parent="1">
          <mxGeometry x="361.25" y="682.5" width="120" height="60" as="geometry" />
        </mxCell>
        <mxCell id="ia7eiPpj9HIzrvs8EQUf-16" value="" style="whiteSpace=wrap;html=1;aspect=fixed;" vertex="1" parent="1">
          <mxGeometry x="600" y="590" width="222.5" height="222.5" as="geometry" />
        </mxCell>
        <mxCell id="ia7eiPpj9HIzrvs8EQUf-17" value="DB" style="rounded=0;whiteSpace=wrap;html=1;" vertex="1" parent="1">
          <mxGeometry x="651.25" y="682.5" width="120" height="60" as="geometry" />
        </mxCell>
        <mxCell id="ia7eiPpj9HIzrvs8EQUf-20" value="&lt;font style=&quot;font-size: 12px;&quot;&gt;&lt;b style=&quot;&quot;&gt;Servidor de frotend web&lt;/b&gt;&lt;/font&gt;" style="text;html=1;align=center;verticalAlign=middle;whiteSpace=wrap;rounded=0;" vertex="1" parent="1">
          <mxGeometry x="30" y="820" width="290" height="80" as="geometry" />
        </mxCell>
        <mxCell id="ia7eiPpj9HIzrvs8EQUf-21" value="&lt;font style=&quot;font-size: 12px;&quot;&gt;&lt;b style=&quot;&quot;&gt;Servidor de backend&amp;nbsp;&lt;/b&gt;&lt;/font&gt;" style="text;html=1;align=center;verticalAlign=middle;whiteSpace=wrap;rounded=0;" vertex="1" parent="1">
          <mxGeometry x="285" y="820" width="290" height="80" as="geometry" />
        </mxCell>
        <mxCell id="ia7eiPpj9HIzrvs8EQUf-22" value="&lt;font style=&quot;font-size: 12px;&quot;&gt;&lt;b style=&quot;&quot;&gt;Servidor de DB&lt;/b&gt;&lt;/font&gt;" style="text;html=1;align=center;verticalAlign=middle;whiteSpace=wrap;rounded=0;" vertex="1" parent="1">
          <mxGeometry x="550" y="820" width="290" height="80" as="geometry" />
        </mxCell>
        <mxCell id="ia7eiPpj9HIzrvs8EQUf-31" value="" style="shape=image;verticalLabelPosition=bottom;labelBackgroundColor=default;verticalAlign=top;aspect=fixed;imageAspect=0;image=https://nestjs.com/img/logo-small.svg;" vertex="1" parent="1">
          <mxGeometry x="400" y="759.15" width="50.31" height="48.6" as="geometry" />
        </mxCell>
        <mxCell id="ia7eiPpj9HIzrvs8EQUf-32" value="" style="shape=image;verticalLabelPosition=bottom;labelBackgroundColor=default;verticalAlign=top;aspect=fixed;imageAspect=0;image=https://upload.wikimedia.org/wikipedia/commons/thumb/4/47/React.svg/1200px-React.svg.png;" vertex="1" parent="1">
          <mxGeometry x="125" y="755.1" width="54" height="48.6" as="geometry" />
        </mxCell>
        <mxCell id="ia7eiPpj9HIzrvs8EQUf-33" value="" style="shape=image;verticalLabelPosition=bottom;labelBackgroundColor=default;verticalAlign=top;aspect=fixed;imageAspect=0;image=https://upload.wikimedia.org/wikipedia/commons/thumb/2/29/Postgresql_elephant.svg/1200px-Postgresql_elephant.svg.png;" vertex="1" parent="1">
          <mxGeometry x="683.75" y="751.05" width="55" height="56.7" as="geometry" />
        </mxCell>
        <mxCell id="ia7eiPpj9HIzrvs8EQUf-34" value="" style="shape=flexArrow;endArrow=classic;html=1;rounded=0;" edge="1" parent="1">
          <mxGeometry width="50" height="50" relative="1" as="geometry">
            <mxPoint x="260" y="710" as="sourcePoint" />
            <mxPoint x="310" y="710" as="targetPoint" />
          </mxGeometry>
        </mxCell>
        <mxCell id="ia7eiPpj9HIzrvs8EQUf-35" value="" style="shape=flexArrow;endArrow=classic;html=1;rounded=0;entryX=-0.01;entryY=0.548;entryDx=0;entryDy=0;entryPerimeter=0;" edge="1" parent="1" target="ia7eiPpj9HIzrvs8EQUf-16">
          <mxGeometry width="50" height="50" relative="1" as="geometry">
            <mxPoint x="532.5" y="712.08" as="sourcePoint" />
            <mxPoint x="592.5" y="712.45" as="targetPoint" />
          </mxGeometry>
        </mxCell>
        <mxCell id="ia7eiPpj9HIzrvs8EQUf-36" value="" style="image;html=1;image=img/lib/clip_art/computers/Server_Rack_Empty_128x128.png" vertex="1" parent="1">
          <mxGeometry x="651.25" y="200" width="140" height="140" as="geometry" />
        </mxCell>
        <mxCell id="ia7eiPpj9HIzrvs8EQUf-37" value="&lt;font style=&quot;font-size: 14px;&quot;&gt;Servidor&lt;/font&gt;" style="text;html=1;align=center;verticalAlign=middle;whiteSpace=wrap;rounded=0;" vertex="1" parent="1">
          <mxGeometry x="700" y="350" width="60" height="30" as="geometry" />
        </mxCell>
        <mxCell id="ia7eiPpj9HIzrvs8EQUf-38" value="" style="image;aspect=fixed;perimeter=ellipsePerimeter;html=1;align=center;shadow=0;dashed=0;spacingTop=3;image=img/lib/active_directory/laptop_client.svg;" vertex="1" parent="1">
          <mxGeometry x="128" y="330" width="67.5" height="75" as="geometry" />
        </mxCell>
        <mxCell id="ia7eiPpj9HIzrvs8EQUf-39" value="&lt;font style=&quot;font-size: 14px;&quot;&gt;Cliente&lt;/font&gt;" style="text;html=1;align=center;verticalAlign=middle;whiteSpace=wrap;rounded=0;" vertex="1" parent="1">
          <mxGeometry x="125" y="410" width="60" height="30" as="geometry" />
        </mxCell>
        <mxCell id="ia7eiPpj9HIzrvs8EQUf-40" value="" style="image;aspect=fixed;perimeter=ellipsePerimeter;html=1;align=center;shadow=0;dashed=0;spacingTop=3;image=img/lib/active_directory/laptop_client.svg;" vertex="1" parent="1">
          <mxGeometry x="63" y="110" width="67.5" height="75" as="geometry" />
        </mxCell>
        <mxCell id="ia7eiPpj9HIzrvs8EQUf-41" value="&lt;font style=&quot;font-size: 14px;&quot;&gt;Cliente&lt;/font&gt;" style="text;html=1;align=center;verticalAlign=middle;whiteSpace=wrap;rounded=0;" vertex="1" parent="1">
          <mxGeometry x="60" y="190" width="60" height="30" as="geometry" />
        </mxCell>
        <mxCell id="ia7eiPpj9HIzrvs8EQUf-42" value="" style="endArrow=classic;html=1;rounded=0;exitX=1;exitY=0.75;exitDx=0;exitDy=0;" edge="1" parent="1" source="ia7eiPpj9HIzrvs8EQUf-2" target="ia7eiPpj9HIzrvs8EQUf-36">
          <mxGeometry width="50" height="50" relative="1" as="geometry">
            <mxPoint x="210" y="250" as="sourcePoint" />
            <mxPoint x="530" y="190" as="targetPoint" />
          </mxGeometry>
        </mxCell>
        <mxCell id="ia7eiPpj9HIzrvs8EQUf-43" value="" style="endArrow=classic;html=1;rounded=0;" edge="1" parent="1">
          <mxGeometry width="50" height="50" relative="1" as="geometry">
            <mxPoint x="150" y="150" as="sourcePoint" />
            <mxPoint x="640" y="230" as="targetPoint" />
          </mxGeometry>
        </mxCell>
        <mxCell id="ia7eiPpj9HIzrvs8EQUf-44" value="" style="endArrow=classic;html=1;rounded=0;exitX=1;exitY=0.75;exitDx=0;exitDy=0;entryX=0;entryY=0;entryDx=0;entryDy=0;" edge="1" parent="1" source="ia7eiPpj9HIzrvs8EQUf-38" target="ia7eiPpj9HIzrvs8EQUf-37">
          <mxGeometry width="50" height="50" relative="1" as="geometry">
            <mxPoint x="220" y="380" as="sourcePoint" />
            <mxPoint x="661" y="397" as="targetPoint" />
          </mxGeometry>
        </mxCell>
      </root>
    </mxGraphModel>
  </diagram>
</mxfile>
